<?xml version="1.0" encoding="utf-8"?>
<!-- Generator: Adobe Illustrator 23.0.5, SVG Export Plug-In . SVG Version: 6.00 Build 0)  -->
<svg version="1.1" id="Capa_1" xmlns="http://www.w3.org/2000/svg" xmlns:xlink="http://www.w3.org/1999/xlink" x="0px" y="0px"
	 viewBox="0 0 500 500" style="enable-background:new 0 0 500 500;" xml:space="preserve">
<style type="text/css">
	.st0{fill:#D8DEE4;}
	.st1{fill:url(#SVGID_1_);}
	.st2{fill:url(#SVGID_2_);}
	.st3{fill:#F2F2F2;}
	.st4{fill:#174159;}
	.st5{fill:#BEC8D2;}
	.st6{fill:url(#SVGID_3_);}
	.st7{fill:#FAE54E;}
	.st8{fill:#FCEF95;}
	.st9{fill:#6736DC;}
	.st10{fill:#784DE0;}
	.st11{fill:#2E546A;}
	.st12{fill:#45677A;}
	.st13{fill:#FFFFFF;}
	.st14{fill:url(#SVGID_4_);}
	.st15{fill:#6CA6F0;}
	.st16{fill:#4C93ED;}
	.st17{fill:none;}
	.st18{fill:#16569B;}
	.st19{fill:url(#SVGID_5_);}
	.st20{fill:url(#SVGID_6_);}
	.st21{fill:#F6F6F6;}
	.st22{fill:url(#SVGID_7_);}
	.st23{fill:#5620D8;}
	.st24{fill:url(#SVGID_8_);}
	.st25{fill:url(#SVGID_9_);}
	.st26{fill:url(#SVGID_10_);}
	.st27{fill:url(#SVGID_11_);}
	.st28{fill:url(#SVGID_12_);}
	.st29{fill:#2D80EA;}
	.st30{fill:url(#SVGID_13_);}
	.st31{fill:#E563C8;}
	.st32{fill:#E148BE;}
	.st33{fill:#C8D0D9;}
	.st34{fill:url(#SVGID_14_);}
	.st35{font-family:'ArialMT';}
	.st36{font-size:18.183px;}
	.st37{fill:#CBD3DB;}
	.st38{fill:url(#SVGID_15_);}
	.st39{fill:url(#SVGID_16_);}
	.st40{fill:url(#SVGID_17_);}
	.st41{fill:url(#SVGID_18_);}
	.st42{display:none;}
	.st43{display:inline;}
	.st44{fill:#A5B7C6;}
</style>
<g id="OBJECTS">
	<g>
		<g>
			<g>
				<g>
					<path class="st0" d="M332.6,311.5L119.2,434.7c-8.9,5.1-16-0.3-16-12.1V256.7c0-11.8,7.2-25.5,16-30.6l213.3-123.2
						c8.9-5.1,16,0.3,16,12.1v165.9C348.6,292.7,341.4,306.4,332.6,311.5z"/>
				</g>
				<g>
					
						<linearGradient id="SVGID_1_" gradientUnits="userSpaceOnUse" x1="225.9" y1="673.2474" x2="225.9" y2="509.4086" gradientTransform="matrix(1 0 0 1 0 -290)">
						<stop  offset="9.300000e-03" style="stop-color:#174159"/>
						<stop  offset="1" style="stop-color:#45677A"/>
					</linearGradient>
					<polygon class="st1" points="342.5,278.4 109.3,413 109.3,251.3 342.5,116.7 					"/>
				</g>
			</g>
			<g>
				
					<linearGradient id="SVGID_2_" gradientUnits="userSpaceOnUse" x1="147.6227" y1="735.3084" x2="206.9754" y2="500.9896" gradientTransform="matrix(1 0 0 1 0 -290)">
					<stop  offset="9.300000e-03" style="stop-color:#BEC8D2"/>
					<stop  offset="1" style="stop-color:#F2F2F2"/>
				</linearGradient>
				<path class="st2" d="M103.2,422.6V256.7c0-11.8,7.2-25.5,16-30.6l213.3-123.2c4.1-2.3,7.8-2.5,10.6-0.8l0,0l-13.2-7.8
					c-2.8-1.8-6.6-1.7-10.7,0.7L105.9,218.2c-8.9,5.1-16,18.8-16,30.6v165.9c0,6.4,2.1,10.9,5.5,12.9l13.5,7.9l0,0
					C105.4,433.6,103.2,429,103.2,422.6z"/>
				<polygon class="st3" points="119.2,226 105.9,218.2 319.2,95 332.6,102.9 				"/>
			</g>
		</g>
		<g>
			<g>
				<g>
					<polygon class="st3" points="376.9,298.6 143.7,432.9 143.7,271.3 376.9,136.9 					"/>
					<polygon class="st4" points="376.9,142.2 143.7,276.5 143.7,271.3 376.9,136.9 					"/>
					<polygon class="st5" points="376.9,153.7 143.7,288 143.7,276.5 376.9,142.2 					"/>
					
						<linearGradient id="SVGID_3_" gradientUnits="userSpaceOnUse" x1="260.25" y1="714.6706" x2="260.25" y2="464.8337" gradientTransform="matrix(1 0 0 1 0 -290)">
						<stop  offset="9.300000e-03" style="stop-color:#5620D8"/>
						<stop  offset="1" style="stop-color:#45677A"/>
					</linearGradient>
					<path class="st6" d="M143.7,288v145l13.3-7.7c10.5-6.1,16.9-17.2,16.9-29.3v-73.5l30.3-17.5v51.8c0,9.6,6.8,13.5,15.1,8.6l0,0
						c8.4-4.8,15.1-16.5,15.1-26.1v-14.6c0-9.6,6.8-21.3,15.1-26.1l0,0c8.4-4.8,15.1-1,15.1,8.6v30.5c0,11.2,12.2,18.3,21.9,12.6
						l90.3-51.8V153.7L143.7,288z"/>
				</g>
				<g>
					<g>
						<path class="st7" d="M201.1,356.2v-21.9H192v21.9c0,0.7,0.4,1.4,1.3,1.9c1.8,1,4.7,1,6.4,0
							C200.7,357.5,201.1,356.8,201.1,356.2z"/>
						<path class="st8" d="M199.8,332.4c1.8,1,1.8,2.7,0,3.7s-4.7,1-6.4,0c-1.8-1-1.8-2.7,0-3.7C195.2,331.4,198,331.4,199.8,332.4z
							"/>
					</g>
					<path class="st5" d="M213.7,307.3c-0.8-0.5-1.8-0.4-2.8,0.2l-32.7,19.2l1,1.7l32.7-19.2c0.4-0.2,0.7-0.3,0.8-0.2
						c0.1,0.1,0.3,0.3,0.3,0.8v2.9c0,1.3-1,2.9-2.1,3.6l-12.2,7.1c-1.7,1-3.1,3.3-3.1,5.3v5.6c0,0.1,0.1,0.3,0.3,0.4
						c0.4,0.2,1,0.2,1.4,0c0.2-0.1,0.3-0.2,0.3-0.4v-5.6c0-1.3,1-2.9,2.1-3.6l12.2-7.1c1.7-1,3.1-3.3,3.1-5.3v-2.9
						C215,308.6,214.5,307.7,213.7,307.3z"/>
					<path class="st9" d="M212.9,313.9c0-3.4-2.4-7.5-5.3-9.2c-1.6-0.9-3-0.9-4-0.3l0,0L174.9,321l7.6,13c0,0,21.1-12.4,28.7-16.6
						C212.2,316.8,212.9,315.7,212.9,313.9z"/>
					<g>
						<path class="st10" d="M173.3,324.4c0,3.4,2.4,7.5,5.3,9.2c2.9,1.7,5.3,0.3,5.3-3s-2.4-7.5-5.3-9.2
							C175.7,319.7,173.3,321.1,173.3,324.4z"/>
						<path class="st4" d="M176.9,326.5c0,1.1,0.8,2.5,1.8,3.1s1.8,0.1,1.8-1s-0.8-2.5-1.8-3.1S176.9,325.3,176.9,326.5z"/>
						<path class="st5" d="M177.6,326.9c0,0.7,0.5,1.6,1.1,1.9s1.1,0.1,1.1-0.6s-0.5-1.6-1.1-1.9S177.6,326.2,177.6,326.9z"/>
					</g>
				</g>
			</g>
			<g>
				<polygon class="st11" points="140.8,269.5 140.8,431.2 143.7,432.9 143.7,271.3 				"/>
				<polygon class="st12" points="140.8,269.5 143.7,271.3 376.9,136.9 374,134.9 				"/>
			</g>
		</g>
		<g>
			<g>
				<polygon class="st3" points="362.7,200.6 210.2,288.7 210.2,274.2 362.7,186.1 				"/>
			</g>
			<polygon class="st13" points="208.4,273.2 210.2,274.2 362.7,186.1 361,185.1 			"/>
			<polygon class="st5" points="210.2,288.7 208.4,287.7 208.4,273.2 210.2,274.2 			"/>
		</g>
		<g>
			
				<linearGradient id="SVGID_4_" gradientUnits="userSpaceOnUse" x1="177.706" y1="473.4967" x2="122.0632" y2="427.1277" gradientTransform="matrix(1 0 0 1 0 -290)">
				<stop  offset="9.300000e-03" style="stop-color:#174159"/>
				<stop  offset="1" style="stop-color:#2D80EA"/>
			</linearGradient>
			<polygon class="st14" points="162.1,154.5 103.2,188.5 103.2,137.4 162.1,103.4 			"/>
			<polygon class="st15" points="162.1,103.4 103.2,137.4 99.9,135.6 158.8,101.6 			"/>
			<polygon class="st16" points="99.9,186.7 103.2,188.5 103.2,137.4 99.9,135.6 			"/>
			<line class="st17" x1="127.1" y1="146.6" x2="123.8" y2="144.8"/>
			<g>
				<path class="st3" d="M151.5,138.8C151.5,138.8,151.5,138.7,151.5,138.8c0-8.2-5.7-11.4-12.8-7.3c-5.1,3-9.6,9-11.6,15.2
					c-1,0.2-2.1,0.6-3.3,1.2c-5.2,3-9.4,10.3-9.4,16.3s4.2,8.4,9.4,5.4l27.4-15.8c3.5-2,6.4-7,6.4-11.1
					C157.6,138.7,154.9,137.1,151.5,138.8z"/>
				<g>
					<path class="st5" d="M151.5,138.7C151.5,138.7,151.5,138.8,151.5,138.7c1.6-0.8,3-0.8,4.1-0.2l0,0l-3.2-1.7
						c-0.3-0.2-0.7-0.3-1.1-0.4C151.5,137.1,151.5,137.9,151.5,138.7z"/>
					<path class="st18" d="M114.4,164.1c0-6,4.2-13.3,9.4-16.3c1.2-0.7,2.3-1.1,3.3-1.2c2-6.2,6.5-12.2,11.6-15.2
						c3.5-2,6.6-2.2,8.9-1l0,0l-3.3-1.8c-2.3-1.2-5.5-1-8.9,1c-5.1,3-9.6,9-11.6,15.2c-1,0.2-2.1,0.6-3.3,1.2
						c-5.2,3-9.4,10.3-9.4,16.3c0,3,1.1,5.1,2.8,6.1l3.5,1.9l0,0C115.5,169.3,114.4,167.2,114.4,164.1z"/>
				</g>
			</g>
		</g>
		<g>
			
				<linearGradient id="SVGID_5_" gradientUnits="userSpaceOnUse" x1="222.7073" y1="473.4978" x2="167.0645" y2="427.1288" gradientTransform="matrix(1 0 0 1 0 -290)">
				<stop  offset="9.300000e-03" style="stop-color:#5620D8"/>
				<stop  offset="1" style="stop-color:#2D80EA"/>
			</linearGradient>
			<polygon class="st19" points="207.1,154.5 148.2,188.5 148.2,137.4 207.1,103.4 			"/>
			<polygon class="st15" points="207.1,103.4 148.2,137.4 144.9,135.6 203.8,101.6 			"/>
			<polygon class="st16" points="144.9,186.7 148.2,188.5 148.2,137.4 144.9,135.6 			"/>
			<line class="st17" x1="172.1" y1="146.6" x2="168.8" y2="144.8"/>
		</g>
		<g>
			<polygon class="st4" points="389.6,223.7 299.5,276.1 297.8,275.2 387.9,222.7 			"/>
			<polygon class="st4" points="299.5,276.1 299.8,352.6 298.1,351.6 297.8,275.2 			"/>
			<g>
				
					<linearGradient id="SVGID_6_" gradientUnits="userSpaceOnUse" x1="344.7" y1="637.3887" x2="344.7" y2="402.2926" gradientTransform="matrix(1 0 0 1 0 -290)">
					<stop  offset="0" style="stop-color:#E148BE"/>
					<stop  offset="1" style="stop-color:#FAE54E"/>
				</linearGradient>
				<polygon class="st20" points="388.7,299.5 301,350.5 300.7,276.8 388.4,225.7 				"/>
				<g>
					<path class="st21" d="M389.9,300.1l-90.1,52.4l-0.3-76.4l90.1-52.4L389.9,300.1z M302.1,348.5l85.4-49.7l-0.3-71l-85.4,49.7
						L302.1,348.5z"/>
				</g>
			</g>
		</g>
		<g>
			<g>
				<g>
					
						<linearGradient id="SVGID_7_" gradientUnits="userSpaceOnUse" x1="168.5585" y1="374.9491" x2="134.8458" y2="439.8138" gradientTransform="matrix(0.866 -0.5 0 1.1547 88.8938 -1.994252e-02)">
						<stop  offset="9.300000e-03" style="stop-color:#5620D8"/>
						<stop  offset="1" style="stop-color:#E148BE"/>
					</linearGradient>
					<path class="st22" d="M223.5,418.5c0-8.4-6-11.8-13.3-7.6c-7.3,4.2-13.3,14.5-13.3,22.9c0,7.1,4.3,10.7,10,9l3.2,4.6l3.2-8.3
						C219.3,434.1,223.5,425.6,223.5,418.5z"/>
					<g>
						<path class="st3" d="M212.2,426.3c0,1.3-0.9,2.8-2,3.4s-2,0.1-2-1.1s0.9-2.8,2-3.4C211.3,424.5,212.2,425.1,212.2,426.3z"/>
						<path class="st3" d="M218.7,422.6c0,1.3-0.9,2.8-2,3.4s-2,0.1-2-1.1c0-1.3,0.9-2.8,2-3.4C217.8,420.8,218.7,421.3,218.7,422.6
							z"/>
						<path class="st3" d="M201.8,432.3c0,1.3,0.9,1.8,2,1.1c1.1-0.6,2-2.2,2-3.4s-0.9-1.8-2-1.1
							C202.7,429.5,201.8,431.1,201.8,432.3z"/>
					</g>
				</g>
				<g>
					<path class="st23" d="M196.9,433.8c0-8.4,6-18.7,13.3-22.9c3.7-2.1,7-2.3,9.4-1c-0.7-0.4-3.6-2.1-3.6-2.1
						c-2.4-1.3-5.7-1.1-9.4,1c-7.3,4.2-13.3,14.5-13.3,22.9c0,4.2,1.5,7.1,3.8,8.5l3.6,2.1C198.4,441,196.9,438,196.9,433.8z"/>
					<path class="st23" d="M219.8,410L219.8,410c0,0,0,0-0.1-0.1C219.7,410,219.7,410,219.8,410z"/>
					<path class="st23" d="M207.4,443.4l-0.4-0.6c-0.6,0.2-1.2,0.3-1.8,0.4l1.5,2.2l3.6,2L207.4,443.4L207.4,443.4z"/>
				</g>
			</g>
			<g>
				<g>
					
						<linearGradient id="SVGID_8_" gradientUnits="userSpaceOnUse" x1="199.6233" y1="388.5075" x2="165.9106" y2="453.3723" gradientTransform="matrix(0.866 -0.5 0 1.1547 88.8938 -1.994252e-02)">
						<stop  offset="9.300000e-03" style="stop-color:#5620D8"/>
						<stop  offset="1" style="stop-color:#E148BE"/>
					</linearGradient>
					<path class="st24" d="M256.5,399.5c0-8.4-6-11.8-13.3-7.6c-7.3,4.2-13.3,14.5-13.3,22.9c0,7.1,4.3,10.7,10,9l3.2,4.6l3.2-8.3
						C252.2,415,256.5,406.6,256.5,399.5z"/>
					<path class="st3" d="M243.2,413.8c3.6-3.7,6.4-11.6,4.2-12.7c-1.7-0.9-4.2,4.9-4.2,4.9s-2.5-2.8-4.2,0
						C236.8,409.6,239.6,414.3,243.2,413.8z"/>
				</g>
				<g>
					<path class="st23" d="M229.9,414.8c0-8.4,6-18.7,13.3-22.9c3.7-2.1,7-2.3,9.4-1c-0.7-0.4-3.6-2.1-3.6-2.1
						c-2.4-1.3-5.7-1.1-9.4,1c-7.3,4.2-13.3,14.5-13.3,22.9c0,4.2,1.5,7.1,3.8,8.5l3.6,2.1C231.4,422,229.9,419,229.9,414.8z"/>
					<path class="st23" d="M252.7,391L252.7,391c0,0,0,0-0.1-0.1C252.6,390.9,252.7,391,252.7,391z"/>
					<path class="st23" d="M240.4,424.4l-0.4-0.6c-0.6,0.2-1.2,0.3-1.8,0.4l1.5,2.2l3.6,2L240.4,424.4L240.4,424.4z"/>
				</g>
			</g>
			<g>
				<g>
					
						<linearGradient id="SVGID_9_" gradientUnits="userSpaceOnUse" x1="230.5671" y1="402.0032" x2="196.8543" y2="466.868" gradientTransform="matrix(0.866 -0.5 0 1.1547 88.8938 -1.994252e-02)">
						<stop  offset="9.300000e-03" style="stop-color:#5620D8"/>
						<stop  offset="1" style="stop-color:#E148BE"/>
					</linearGradient>
					<path class="st25" d="M289.4,380.4c0-8.4-6-11.8-13.3-7.6c-7.3,4.2-13.3,14.5-13.3,22.9c0,7.1,4.3,10.7,10,9l3.2,4.6l3.2-8.3
						C285.1,396,289.4,387.6,289.4,380.4z"/>
					<g>
						<path class="st3" d="M273.7,389.6c0,1.5-0.8,3.2-1.7,3.7c-1,0.6-1.7-0.2-1.7-1.7s0.8-3.2,1.7-3.7
							C272.9,387.3,273.7,388,273.7,389.6z"/>
						<path class="st3" d="M278.5,386.8c0,1.5,0.8,2.3,1.7,1.7c1-0.6,1.7-2.2,1.7-3.7s-0.8-2.3-1.7-1.7
							C279.3,383.6,278.5,385.3,278.5,386.8z"/>
						<g>
							<path class="st3" d="M276.1,392.5c-1,0.6-1.8,0.1-1.8-1c0-0.2,0.1-0.4,0.3-0.5c0.2-0.1,0.3,0,0.3,0.2c0,0.7,0.5,1,1.2,0.7
								c0.6-0.4,1.2-1.3,1.2-2c0-0.2,0.1-0.4,0.3-0.5c0.2-0.1,0.3,0,0.3,0.2C277.9,390.5,277.1,391.9,276.1,392.5z"/>
						</g>
					</g>
				</g>
				<g>
					<path class="st23" d="M262.8,395.8c0-8.4,6-18.7,13.3-22.9c3.7-2.1,7-2.3,9.4-1c-0.7-0.4-3.6-2.1-3.6-2.1
						c-2.4-1.3-5.7-1.1-9.4,1c-7.3,4.2-13.3,14.5-13.3,22.9c0,4.2,1.5,7.1,3.8,8.5l3.6,2.1C264.3,403,262.8,400,262.8,395.8z"/>
					<path class="st23" d="M285.6,372L285.6,372c0,0,0,0-0.1-0.1L285.6,372z"/>
					<path class="st23" d="M273.3,405.4l-0.4-0.6c-0.6,0.2-1.2,0.3-1.8,0.4l1.5,2.2l3.5,2L273.3,405.4L273.3,405.4z"/>
				</g>
			</g>
		</g>
		<g>
			<polygon class="st4" points="409.9,235.4 319.8,287.8 318.1,286.9 408.1,234.4 			"/>
			<polygon class="st4" points="319.8,287.8 320.1,364.3 318.4,363.3 318.1,286.9 			"/>
			<g>
				
					<linearGradient id="SVGID_10_" gradientUnits="userSpaceOnUse" x1="369.2244" y1="596.7922" x2="348.5191" y2="562.5214" gradientTransform="matrix(1 0 0 1 0 -290)">
					<stop  offset="0" style="stop-color:#FFFFFF"/>
					<stop  offset="1" style="stop-color:#2D80EA"/>
				</linearGradient>
				<polygon class="st26" points="409,311.2 321.3,362.2 321,288.5 408.7,237.4 				"/>
				
					<ellipse transform="matrix(0.5015 -0.8652 0.8652 0.5015 -85.6011 470.038)" class="st7" cx="365.1" cy="309.3" rx="16.8" ry="9.7"/>
				
					<linearGradient id="SVGID_11_" gradientUnits="userSpaceOnUse" x1="369.2968" y1="619.4921" x2="356.9212" y2="600.2008" gradientTransform="matrix(1 0 0 1 0 -290)">
					<stop  offset="0" style="stop-color:#174159"/>
					<stop  offset="1" style="stop-color:#F2F2F2"/>
				</linearGradient>
				<polygon class="st27" points="408.9,283.7 321.2,334.8 321.3,362.2 409,311.2 				"/>
				
					<linearGradient id="SVGID_12_" gradientUnits="userSpaceOnUse" x1="363.0832" y1="623.4782" x2="350.7076" y2="604.1869" gradientTransform="matrix(1 0 0 1 0 -290)">
					<stop  offset="0" style="stop-color:#174159"/>
					<stop  offset="1" style="stop-color:#FAE54E"/>
				</linearGradient>
				<polygon class="st28" points="353.1,316.2 321.3,362.2 409,311.2 376.9,302.3 				"/>
				<g>
					<polygon class="st29" points="408.9,283.7 408.8,269.6 396.3,291.1 					"/>
					<polygon class="st29" points="401.7,287.9 395.4,284.6 389.1,295.3 					"/>
				</g>
				<g>
					<polygon class="st29" points="321.2,334.8 321.1,320.7 333.8,327.5 					"/>
					<polygon class="st29" points="328.3,330.6 334.6,319.9 340.9,323.3 					"/>
				</g>
				<g>
					<path class="st21" d="M410.1,311.8L320,364.2l-0.3-76.4l90.1-52.4L410.1,311.8z M322.4,360.2l85.4-49.7l-0.3-71l-85.4,49.7
						L322.4,360.2z"/>
				</g>
			</g>
		</g>
		<g>
			<g>
				
					<linearGradient id="SVGID_13_" gradientUnits="userSpaceOnUse" x1="325.35" y1="734.982" x2="325.35" y2="638.5671" gradientTransform="matrix(1 0 0 1 0 -290)">
					<stop  offset="0" style="stop-color:#E148BE"/>
					<stop  offset="1" style="stop-color:#FAE54E"/>
				</linearGradient>
				<polygon class="st30" points="348,410.4 302.7,436.6 302.7,395 348,368.8 				"/>
			</g>
			<polygon class="st31" points="348,368.8 302.7,395 299.6,393.4 345,367.2 			"/>
			<polygon class="st32" points="299.6,434.9 302.7,436.6 302.7,395 299.6,393.4 			"/>
			<g>
				<polygon class="st33" points="323.4,414.3 320.3,412.6 320.3,398 333.4,397.7 336.5,399.4 323.4,399.7 				"/>
				<polygon class="st3" points="336.5,399.4 323.4,399.7 323.4,414.3 				"/>
			</g>
		</g>
		<g>
			<g>
				
					<linearGradient id="SVGID_14_" gradientUnits="userSpaceOnUse" x1="380.9876" y1="810.0544" x2="380.9876" y2="710.9863" gradientTransform="matrix(1 0 0 1 0 -290)">
					<stop  offset="0" style="stop-color:#174159"/>
					<stop  offset="1" style="stop-color:#F2F2F2"/>
				</linearGradient>
				<path class="st34" d="M360.4,365.5v65.4c-1.7,9.4,6.8,10.5,6.8,10.5l34.6-20v-12.2v-67.7L360.4,365.5z"/>
				<g>
					<polygon class="st5" points="395.4,376.7 366.7,393.2 366.7,390.7 395.4,374.1 					"/>
					<polygon class="st5" points="395.4,381.5 366.7,398.1 366.7,395.5 395.4,379 					"/>
					<polygon class="st5" points="395.4,386.4 366.7,402.9 366.7,400.4 395.4,383.8 					"/>
					<polygon class="st5" points="395.4,391.2 366.7,407.8 366.7,405.2 395.4,388.7 					"/>
					<polygon class="st5" points="395.4,396.1 366.7,412.6 366.7,410.1 395.4,393.5 					"/>
					<polygon class="st5" points="395.4,400.9 366.7,417.5 366.7,414.9 395.4,398.3 					"/>
					<polygon class="st5" points="395.4,405.7 366.7,422.3 366.7,419.7 395.4,403.2 					"/>
					<g>
						<text transform="matrix(0.8715 -0.5031 0 1 376.2942 379.8033)" class="st5 st35 st36">T</text>
					</g>
				</g>
			</g>
			<polygon class="st5" points="358.7,433.1 360.4,433.1 360.4,365.5 358.7,364.5 			"/>
			<polygon class="st37" points="358.7,364.5 360.4,365.5 401.7,341.6 400,340.7 			"/>
			<g>
				<path class="st5" d="M365.7,441.8c-0.7,0-1.5-0.2-2.3-0.7c-2.6-1.5-4.6-5-4.6-8h1.7c0,2.4,1.7,5.3,3.8,6.5
					c0.8,0.5,1.6,0.6,2.1,0.3c0.5-0.3,0.8-1,0.8-2c0-2.4-1.7-5.3-3.8-6.5l0.8-1.5c2.6,1.5,4.6,5,4.6,8c0,1.6-0.6,2.8-1.6,3.4
					C366.7,441.7,366.2,441.8,365.7,441.8z"/>
			</g>
			<path class="st37" d="M405.5,406.2L364.2,430c2,1.2,3.7,3.5,4.3,5.9l0,0l0,0c0.2,0.7,0.3,1.4,0.3,2.1c0,1.6-0.6,2.8-1.6,3.4
				l41.3-23.9c1.1-0.6,1.6-1.8,1.6-3.4C410.1,411.2,408.1,407.7,405.5,406.2z"/>
		</g>
		<g>
			<g>
				<path class="st4" d="M276.9,138.7c4.2-2.4,7.6-8.3,7.6-13.2c0-4.8-3.4-6.8-7.6-4.3c-0.6,0.3-1.1,0.7-1.7,1.2
					c-0.7,3.6-2.9,7.5-5.7,9.9c-0.1,0.7-0.2,1.4-0.2,2.1C269.3,139.2,272.7,141.1,276.9,138.7z"/>
				<path class="st4" d="M290.7,106.3L290.7,106.3L290.7,106.3L290.7,106.3z"/>
				<path class="st4" d="M257.5,141.2L257.5,141.2c0-4.2,15.8-31.4,19.4-33.5c5.4-3.1,10.2-3.4,13.7-1.4l-8.4-4.8
					c-3.6-2.4-8.7-2.3-14.4,1c-10.7,6.2-19.4,21.2-19.4,33.5l0,0c0,7.3,2,15.6,9.7,19.9l8.8,5.1
					C259.4,156.5,257.5,148.3,257.5,141.2z"/>
				<path class="st4" d="M267.3,161.1L267.3,161.1L267.3,161.1L267.3,161.1z"/>
			</g>
			
				<linearGradient id="SVGID_15_" gradientUnits="userSpaceOnUse" x1="267.3414" y1="456.5454" x2="293.3081" y2="360.0978" gradientTransform="matrix(1 0 0 1 0 -290)">
				<stop  offset="0" style="stop-color:#2D80EA"/>
				<stop  offset="1" style="stop-color:#FAE54E"/>
			</linearGradient>
			<path class="st38" d="M276.9,107.7c-10.7,6.2-19.4,21.2-19.4,33.5l0,0c0,9.7,3.5,21.2,19.4,22.6c15.9-19.7,19.4-35.4,19.4-45l0,0
				C296.3,106.4,287.6,101.5,276.9,107.7z M276.9,138.7c-4.2,2.4-7.6,0.5-7.6-4.3s3.4-10.7,7.6-13.2s7.6-0.5,7.6,4.3
				C284.5,130.4,281.1,136.3,276.9,138.7z"/>
		</g>
		<g>
			<g>
				<polygon class="st18" points="160.6,161 164.1,156.8 164.1,156.8 172.8,146.7 169.5,144.9 157.3,159.2 157.3,161.3 160.6,163.1 
					160.6,161.3 160.6,161.3 				"/>
				<path class="st5" d="M166,158.9c0.6-0.2,1.2-0.3,1.7-0.3l4.3,0.2c0.2,0,0.3,0,0.4,0.1l0,0l-3.3-1.8l0,0
					c-0.1-0.1-0.2-0.1-0.4-0.1h-0.8l-0.2,0.3C167.2,157.8,166.7,158.3,166,158.9z"/>
			</g>
			<path class="st18" d="M183.4,136.5c0.2-0.7,0.5-1.3,0.9-1.9c0.4-0.5,0.9-1,1.4-1.3l2-1.1l0,0l-3.3-1.8l-2,1.1
				c-0.5,0.3-1,0.7-1.4,1.3c-0.4,0.5-0.7,1.2-0.9,1.9l-8.5,30.6l3.3,1.8l0,0L183.4,136.5z"/>
			<g>
				<path class="st18" d="M186.8,139.5L186.8,139.5l3.4,1.9l0,0c-0.1,0-0.2-0.1-0.2-0.2c-0.1-0.2-0.2-0.4-0.2-0.6v-3.7l12.1,0.3
					l-3.3-1.8l-11.7-0.3l-0.4,1.5v2.1c0,0.3,0.1,0.5,0.2,0.6C186.7,139.5,186.7,139.5,186.8,139.5z"/>
				<path class="st18" d="M189.9,149c0.1-0.3,0.3-0.6,0.6-0.9l4.3-5.1c0.5-0.6,1.1-1.1,1.7-1.7c-0.6,0.2-1.2,0.3-1.7,0.3l-3.5-0.1
					l-4,4.8c-0.3,0.3-0.5,0.6-0.6,0.9c-0.1,0.3-0.2,0.6-0.2,0.8v3.7l3.3,1.8v-3.7C189.8,149.5,189.8,149.3,189.9,149z"/>
			</g>
			<g>
				<path class="st3" d="M167.8,157.2c-0.5,0.6-1.1,1.1-1.7,1.7c0.6-0.2,1.2-0.3,1.7-0.3l4.3,0.2c0.3,0,0.5,0.1,0.6,0.2
					c0.1,0.2,0.2,0.4,0.2,0.6v3.7l-12.1-0.3v-2l12.1-14.3v3.7c0,0.3-0.1,0.5-0.2,0.8c-0.1,0.3-0.3,0.6-0.6,0.9L167.8,157.2z"/>
				<path class="st3" d="M179.3,162.7c-0.1,0.4-0.3,0.7-0.4,1.1c-0.2,0.3-0.4,0.7-0.6,0.9c-0.2,0.3-0.4,0.5-0.7,0.8
					c-0.2,0.2-0.5,0.4-0.7,0.5l-2,1.1l8.5-30.6c0.2-0.7,0.5-1.3,0.9-1.9c0.4-0.5,0.9-1,1.4-1.3l2-1.1L179.3,162.7z"/>
				<path class="st3" d="M201.9,137.1v2.1l-12.1,14.3v-3.7c0-0.3,0.1-0.5,0.2-0.8c0.1-0.3,0.3-0.6,0.6-0.9l4.3-5.1
					c0.5-0.6,1.1-1.1,1.7-1.7c-0.6,0.2-1.2,0.3-1.7,0.3l-4.3-0.2c-0.3,0-0.5-0.1-0.6-0.2c-0.1-0.2-0.2-0.4-0.2-0.6v-3.7L201.9,137.1
					z"/>
			</g>
		</g>
		<g>
			<g>
				
					<rect x="193.1" y="234.2" transform="matrix(0.5016 -0.8651 0.8651 0.5016 -104.0933 295.5378)" class="st23" width="22.7" height="7.9"/>
			</g>
			<g>
				
					<linearGradient id="SVGID_16_" gradientUnits="userSpaceOnUse" x1="192.4185" y1="691.2048" x2="192.4185" y2="526.7517" gradientTransform="matrix(1 0 0 1 0 -290)">
					<stop  offset="0" style="stop-color:#2D80EA"/>
					<stop  offset="1" style="stop-color:#E148BE"/>
				</linearGradient>
				<path class="st39" d="M185.3,278.6c-1.9,0-3.8-0.7-5.4-2.3c-0.5-0.5-0.8-1-1.2-1.6c-1.3-2.4-1.2-5.1,0.1-7.3l0,0l14.4-24.9
					c2.1-3.5,6.6-4.8,10.1-2.7l0,0c3.6,2,4.8,6.6,2.8,10.2l-14.4,24.9C190.4,277.3,187.9,278.6,185.3,278.6z M185.7,271.4
					L185.7,271.4L185.7,271.4L185.7,271.4z"/>
			</g>
			<g>
				<g>
					
						<linearGradient id="SVGID_17_" gradientUnits="userSpaceOnUse" x1="217.1492" y1="523.0957" x2="248.4176" y2="447.7407" gradientTransform="matrix(1 0 0 1 0 -290)">
						<stop  offset="9.300000e-03" style="stop-color:#174159"/>
						<stop  offset="1" style="stop-color:#2D80EA"/>
					</linearGradient>
					<path class="st40" d="M219.6,235.5c-3.3,0-5.8-1-7.3-1.9c-2.9-1.7-7.9-6.1-7.9-16.4c0-14.3,9.8-31.2,22.2-38.4
						c9.1-5.2,15.4-3.1,18.3-1.4c2.9,1.7,7.9,6.1,7.9,16.4c0,14.3-9.8,31.2-22.2,38.4C226.3,234.7,222.6,235.5,219.6,235.5z
						 M237.7,183.5c-2.1,0-4.5,0.8-7.1,2.2c-9.9,5.7-18.3,20.1-18.3,31.5c0,4.6,1.4,8.1,3.9,9.6s6.3,0.9,10.4-1.4
						c9.9-5.7,18.3-20.1,18.3-31.5c0-4.6-1.4-8.1-3.9-9.6C240.1,183.8,238.9,183.5,237.7,183.5z"/>
				</g>
				<g>
					<path class="st23" d="M204.4,217.2c0-14.3,9.8-31.2,22.2-38.4c9.1-5.2,15.4-3.1,18.3-1.4l-9.7-5.6c-3-1.7-9.3-3.8-18.3,1.4
						c-12.5,7.2-22.2,24-22.2,38.4c0,10.3,4.9,14.7,7.9,16.4l9.7,5.6C209.3,231.9,204.4,227.6,204.4,217.2z"/>
					<path class="st23" d="M216.2,226.8c2.5,1.5,6.3,0.9,10.4-1.4c9.9-5.7,18.3-20.1,18.3-31.5c0-4.6-1.4-8.1-3.9-9.6
						c-0.9-0.5-2.1-0.8-3.3-0.8c-0.9,0-1.9,0.2-3,0.5c0.3,1.3,0.5,2.7,0.5,4.3c0,11.4-8.4,25.8-18.3,31.5c-1.4,0.8-2.8,1.4-4.1,1.8
						C213.4,224,214.6,225.9,216.2,226.8z"/>
				</g>
				<path class="st5" d="M243.6,193c0,11.7-8.2,25.9-18.4,31.7c-10.2,5.9-18.4,1.2-18.4-10.5s8.2-25.9,18.4-31.7
					C235.3,176.6,243.6,181.3,243.6,193z"/>
				<g>
					
						<linearGradient id="SVGID_18_" gradientUnits="userSpaceOnUse" x1="239.8618" y1="421.2257" x2="220.8441" y2="546.6518" gradientTransform="matrix(1 0 0 1 0 -290)">
						<stop  offset="0" style="stop-color:#2D80EA"/>
						<stop  offset="1" style="stop-color:#E148BE"/>
					</linearGradient>
					<path class="st41" d="M219.6,235.5c-3.3,0-5.8-1-7.3-1.9c-2.9-1.7-7.9-6.1-7.9-16.4c0-14.3,9.8-31.2,22.2-38.4
						c9.1-5.2,15.4-3.1,18.3-1.4c2.9,1.7,7.9,6.1,7.9,16.4c0,14.3-9.8,31.2-22.2,38.4C226.3,234.7,222.6,235.5,219.6,235.5z
						 M237.7,183.5c-2.1,0-4.5,0.8-7.1,2.2c-9.9,5.7-18.3,20.1-18.3,31.5c0,4.6,1.4,8.1,3.9,9.6s6.3,0.9,10.4-1.4
						c9.9-5.7,18.3-20.1,18.3-31.5c0-4.6-1.4-8.1-3.9-9.6C240.1,183.8,238.9,183.5,237.7,183.5z"/>
				</g>
				<path class="st5" d="M240,189.4c0.4,1.8,0.4,3.5,0.3,5.2c-0.1,1.7-0.5,3.3-1,4.8c-0.9,3.1-2.4,5.9-4,8.5
					c1.1-2.9,1.8-5.9,1.9-8.9c0.1-1.5,0.1-3-0.1-4.4c-0.2-1.4-0.6-2.7-1.1-3.9c-0.5-1.1-0.1-2.4,1-2.9s2.4-0.1,2.9,1
					C239.9,189,239.9,189.1,240,189.4L240,189.4z"/>
			</g>
		</g>
	</g>
</g>
<g id="DESIGNED_BY_FREEPIK" class="st42">
	<g class="st43">
		<g>
			<g id="XMLID_225_">
				<g id="XMLID_244_">
					<path id="XMLID_252_" class="st44" d="M260.1,466.5c-0.4,0.4-0.8,0.9-1.1,1.5l-0.5-0.2c-0.1-0.3-0.3-0.5-0.7-0.5
						c-0.3,0-0.6,0.3-0.5,0.7c0,0.3,0.3,0.6,0.7,0.5c0.1,0,0.1,0,0.2-0.1l0.5,0.2c-0.3,0.6-0.4,1.1-0.5,1.7l0.7,0.1
						c0.2-1.3,0.9-2.5,1.8-3.5L260.1,466.5z"/>
					<path id="XMLID_251_" class="st44" d="M265.6,464.2c-0.2,0-0.3,0-0.5,0l-0.1-0.6c0.2-0.1,0.3-0.4,0.3-0.6
						c0-0.4-0.4-0.7-0.8-0.6c-0.4,0-0.7,0.4-0.6,0.8c0,0.3,0.2,0.5,0.4,0.6l0.1,0.6c-0.7,0.1-1.4,0.3-2.1,0.6l0.3,0.7
						c0.9-0.4,1.9-0.7,3-0.7c0.5,0,1,0.1,1.5,0.2l0.2-0.7C266.7,464.2,266.1,464.2,265.6,464.2z"/>
					<path id="XMLID_250_" class="st44" d="M272.2,466.7c0.3,0,0.6-0.3,0.5-0.7c0-0.3-0.3-0.6-0.7-0.5c-0.3,0-0.5,0.3-0.5,0.6
						l-0.4,0.4c-0.4-0.4-0.9-0.8-1.4-1.1l-0.4,0.6c1.1,0.7,2,1.7,2.6,2.9l0.7-0.3c-0.3-0.6-0.6-1.1-0.9-1.5L272.2,466.7
						C272.1,466.7,272.1,466.7,272.2,466.7z"/>
					<path id="XMLID_249_" class="st44" d="M265,474.4c-0.4,0-0.8,0-1.2,0c-0.9,0-1.7-0.1-2.5-0.2c-0.4-0.1-0.8-0.2-1.3-0.3
						c1,1.9,3.1,3.1,5.4,3.1c2.9,0,5.3-1.9,6-4.5c-0.7,0.4-1.5,0.8-2.5,1.1C267.8,474,266.5,474.3,265,474.4z"/>
					<path id="XMLID_245_" class="st44" d="M265.6,465.7c-3.4,0-6.1,2.7-6.1,5.9c0,0.4,0,0.8,0.1,1.3c0.7,0.5,2.7,0.9,5.3,0.7
						c2.9-0.2,5.3-1,6.7-2.2c0-0.2,0-0.4,0-0.6C271.2,467.9,268.6,465.7,265.6,465.7z M263.4,472.2c-1,0-1.9-0.8-1.9-1.9
						c0-1,0.8-1.9,1.9-1.9c1,0,1.9,0.8,1.9,1.9C265.3,471.4,264.5,472.2,263.4,472.2z M268.2,471.3c-0.8,0-1.4-0.6-1.4-1.4
						s0.6-1.4,1.4-1.4s1.4,0.6,1.4,1.4C269.5,470.7,268.9,471.3,268.2,471.3z"/>
				</g>
				<path id="XMLID_242_" class="st44" d="M281.6,467.5c-0.3-0.1-0.8-0.3-1.4-0.2c-0.6,0.1-0.8,0.3-0.8,1v0.9h2.2v1.7h-2.2v5.5h-1.9
					v-5.5h-1.3v-1.7h1.3v-0.9c0-1.7,0.9-2.8,2.6-2.8c0.6,0,1.2,0.1,1.6,0.3v1.7H281.6z"/>
				<path id="XMLID_240_" class="st44" d="M286.3,470.9c-0.2,0-0.4,0-0.5,0c-0.9,0-1.5,0.5-1.5,1.6v3.9h-1.9v-7.2h1.9v0.8
					c0.5-0.7,1.1-1,2-1c0.4,0,0.8,0.1,1.1,0.3L286.3,470.9z"/>
				<path id="XMLID_237_" class="st44" d="M294,472.8c0,0.2,0,0.5,0,0.7h-5.1c0.2,1,0.9,1.5,1.8,1.5c0.6,0,1.3-0.3,1.8-0.7l1.1,1.2
					c-0.8,0.7-1.9,1.1-3.1,1.1c-2.2,0-3.7-1.5-3.7-3.8s1.5-3.8,3.6-3.8C292.5,469,294,470.5,294,472.8z M288.9,472.1h3.2
					c-0.2-0.9-0.7-1.4-1.6-1.4S289,471.2,288.9,472.1z"/>
				<path id="XMLID_234_" class="st44" d="M301.6,472.8c0,0.2,0,0.5,0,0.7h-5.1c0.2,1,0.9,1.5,1.8,1.5c0.6,0,1.3-0.3,1.8-0.7
					l1.1,1.2c-0.8,0.7-1.9,1.1-3.1,1.1c-2.2,0-3.7-1.5-3.7-3.8s1.5-3.8,3.6-3.8C300.2,469,301.6,470.5,301.6,472.8z M296.5,472.1
					h3.2c-0.2-0.9-0.7-1.4-1.6-1.4S296.7,471.2,296.5,472.1z"/>
				<path id="XMLID_231_" class="st44" d="M310,472.8c0,2.2-1.5,3.8-3.5,3.8c-1,0-1.6-0.4-2.1-0.9v3.7h-1.9v-10.1h1.9v0.8
					c0.5-0.6,1.2-1,2.1-1C308.5,469,310,470.6,310,472.8z M304.3,472.8c0,1.1,0.7,2,1.8,2c1.1,0,1.9-0.9,1.9-2s-0.7-2-1.9-2
					C305,470.8,304.3,471.6,304.3,472.8z"/>
				<path id="XMLID_228_" class="st44" d="M313.1,466.8c0,0.7-0.5,1.2-1.2,1.2s-1.2-0.5-1.2-1.2s0.5-1.2,1.2-1.2
					C312.5,465.6,313.1,466.1,313.1,466.8z M312.8,476.4h-1.9v-7.2h1.9V476.4z"/>
				<path id="XMLID_226_" class="st44" d="M316,471.7l2.7-2.6h2.4l-3.5,3.4l3.5,3.8h-2.4l-2.7-2.9v2.9h-1.9v-10.7h1.9V471.7z"/>
			</g>
			<g>
				<path class="st44" d="M184.4,476.3v-1.1c-0.5,0.7-1.4,1.2-2.4,1.2c-1.8,0-3.1-1.4-3.1-3.7c0-2.3,1.3-3.7,3.1-3.7
					c1,0,1.8,0.5,2.4,1.2v-3.8h1.1v9.8L184.4,476.3L184.4,476.3z M184.4,474.4v-3.2c-0.4-0.6-1.2-1.1-2.1-1.1
					c-1.4,0-2.3,1.2-2.3,2.7c0,1.6,0.9,2.7,2.3,2.7C183.2,475.5,184,475,184.4,474.4z"/>
				<path class="st44" d="M186.9,472.7c0-2.1,1.5-3.7,3.5-3.7c2.1,0,3.4,1.7,3.4,3.8v0.3h-5.7c0.1,1.3,1,2.4,2.5,2.4
					c0.8,0,1.6-0.3,2.2-0.9l0.5,0.7c-0.7,0.7-1.7,1.1-2.8,1.1C188.4,476.5,186.9,475,186.9,472.7z M190.4,469.9
					c-1.5,0-2.3,1.3-2.3,2.4h4.6C192.7,471.3,192,469.9,190.4,469.9z"/>
				<path class="st44" d="M194.6,475.4l0.6-0.8c0.5,0.5,1.4,1,2.3,1c1.1,0,1.7-0.5,1.7-1.2c0-1.7-4.4-0.7-4.4-3.3c0-1.1,1-2,2.6-2
					c1.2,0,2.1,0.5,2.6,1l-0.5,0.8c-0.4-0.5-1.2-0.9-2.1-0.9c-1,0-1.6,0.5-1.6,1.1c0,1.6,4.4,0.5,4.4,3.3c0,1.2-1,2.1-2.8,2.1
					C196.3,476.5,195.3,476.1,194.6,475.4z"/>
				<path class="st44" d="M201.5,467.5c0-0.4,0.3-0.7,0.7-0.7s0.7,0.3,0.7,0.7s-0.3,0.7-0.7,0.7S201.5,467.9,201.5,467.5z
					 M201.7,476.3v-7.1h1.1v7.1H201.7z"/>
				<path class="st44" d="M204.6,478.1l0.6-0.8c0.6,0.7,1.3,1,2.3,1c1.2,0,2.3-0.6,2.3-2.1v-1c-0.5,0.7-1.4,1.3-2.4,1.3
					c-1.8,0-3.1-1.4-3.1-3.7c0-2.3,1.3-3.7,3.1-3.7c1,0,1.8,0.5,2.4,1.2v-1.1h1.1v6.9c0,2.3-1.6,3.1-3.4,3.1
					C206.2,479.2,205.4,478.9,204.6,478.1z M209.7,474.3v-3.1c-0.4-0.6-1.2-1.1-2.1-1.1c-1.4,0-2.3,1.1-2.3,2.7s0.8,2.7,2.3,2.7
					C208.5,475.4,209.3,474.9,209.7,474.3z"/>
				<path class="st44" d="M217.4,476.3v-4.6c0-1.2-0.6-1.6-1.6-1.6c-0.9,0-1.7,0.5-2.1,1.1v5.2h-1.1v-7.1h1.1v1
					c0.5-0.6,1.5-1.2,2.5-1.2c1.5,0,2.3,0.7,2.3,2.3v5L217.4,476.3L217.4,476.3z"/>
				<path class="st44" d="M219.9,472.7c0-2.1,1.5-3.7,3.5-3.7c2.1,0,3.4,1.7,3.4,3.8v0.3h-5.7c0.1,1.3,1,2.4,2.5,2.4
					c0.8,0,1.6-0.3,2.2-0.9l0.5,0.7c-0.7,0.7-1.7,1.1-2.8,1.1C221.4,476.5,219.9,475,219.9,472.7z M223.4,469.9
					c-1.5,0-2.3,1.3-2.3,2.4h4.6C225.7,471.3,225,469.9,223.4,469.9z"/>
				<path class="st44" d="M233.4,476.3v-1.1c-0.5,0.7-1.4,1.2-2.4,1.2c-1.8,0-3.1-1.4-3.1-3.7c0-2.3,1.3-3.7,3.1-3.7
					c1,0,1.8,0.5,2.4,1.2v-3.8h1.1v9.8L233.4,476.3L233.4,476.3z M233.4,474.4v-3.2c-0.4-0.6-1.2-1.1-2.1-1.1
					c-1.4,0-2.3,1.2-2.3,2.7c0,1.6,0.8,2.7,2.3,2.7C232.1,475.5,233,475,233.4,474.4z"/>
				<path class="st44" d="M239.7,476.3v-9.8h1.1v3.8c0.6-0.8,1.4-1.2,2.4-1.2c1.8,0,3.1,1.5,3.1,3.7c0,2.3-1.3,3.7-3.1,3.7
					c-1,0-1.9-0.5-2.4-1.2v1.1L239.7,476.3L239.7,476.3z M242.9,475.5c1.4,0,2.3-1.2,2.3-2.7c0-1.6-0.9-2.7-2.3-2.7
					c-0.9,0-1.7,0.5-2.1,1.1v3.2C241.2,475,242,475.5,242.9,475.5z"/>
				<path class="st44" d="M247.5,478.1c0.2,0.1,0.4,0.1,0.6,0.1c0.5,0,0.8-0.2,1.1-0.7l0.5-1.1l-3-7.1h1.2l2.4,5.8l2.3-5.8h1.2
					l-3.5,8.5c-0.4,1-1.1,1.4-2.1,1.4c-0.2,0-0.6,0-0.8-0.1L247.5,478.1z"/>
			</g>
		</g>
	</g>
</g>
</svg>
